<svg width="156" height="94" viewBox="0 0 156 94" fill="none" xmlns="http://www.w3.org/2000/svg">
<g opacity="0.25">
<rect opacity="0.1" width="34.5344" height="34.5344" rx="11.9084" transform="matrix(-1 0 0 1 156 -10.5115)" fill="white"/>
<rect opacity="0.1" width="34.5344" height="34.5344" rx="11.9084" transform="matrix(-1 0 0 1 156 29.9771)" fill="white"/>
<rect opacity="0.1" width="34.5344" height="34.5344" rx="11.9084" transform="matrix(-1 0 0 1 115.511 29.9771)" fill="white"/>
<rect opacity="0.1" width="34.5344" height="34.5344" rx="11.9084" transform="matrix(-1 0 0 1 75.0229 29.9771)" fill="white"/>
<rect opacity="0.1" width="34.5344" height="34.5344" rx="11.9084" transform="matrix(-1 0 0 1 156 70.4658)" fill="white"/>
<rect opacity="0.1" width="34.5344" height="34.5344" rx="11.9084" transform="matrix(-1 0 0 1 75.0229 70.4658)" fill="white"/>
<rect opacity="0.1" width="34.5344" height="34.5344" rx="11.9084" transform="matrix(-1 0 0 1 34.5344 70.4658)" fill="white"/>
</g>
</svg>
