<svg width="28" height="29" viewBox="0 0 28 29" fill="none" xmlns="http://www.w3.org/2000/svg">
<path d="M21 14.0175C19.4934 14.0189 18.0274 14.5064 16.82 15.4075L12.6 11.1875C13.5117 9.98886 14.0037 8.5235 14 7.01751C14.0039 5.44041 13.4752 3.9082 12.4995 2.66917C11.5237 1.43015 10.1582 0.556923 8.6241 0.191016C7.09003 -0.174891 5.47735 -0.0120383 4.04741 0.653182C2.61747 1.3184 1.45407 2.44701 0.745746 3.85609C0.0374216 5.26518 -0.174314 6.87217 0.144853 8.41664C0.46402 9.9611 1.29539 11.3525 2.50422 12.3654C3.71305 13.3783 5.22851 13.9534 6.805 13.9973C8.38148 14.0412 9.92662 13.5515 11.19 12.6075L15.4 16.8275C14.4562 18.0905 13.9665 19.6352 14.0102 21.2112C14.0538 22.7873 14.6282 24.3025 15.6404 25.5114C16.6526 26.7202 18.0433 27.552 19.5872 27.8719C21.131 28.1918 22.7377 27.9811 24.1469 27.274C25.5561 26.5669 26.6853 25.4047 27.3517 23.9758C28.018 22.5468 28.1824 20.9348 27.8182 19.4007C27.454 17.8667 26.5827 16.5005 25.3452 15.5235C24.1077 14.5465 22.5767 14.0158 21 14.0175ZM1.99999 7.01751C1.99999 6.0286 2.29323 5.0619 2.84264 4.23966C3.39205 3.41741 4.17294 2.77655 5.08657 2.39811C6.0002 2.01967 7.00553 1.92066 7.97544 2.11358C8.94534 2.30651 9.83626 2.78271 10.5355 3.48197C11.2348 4.18124 11.711 5.07215 11.9039 6.04206C12.0968 7.01196 11.9978 8.01729 11.6194 8.93093C11.2409 9.84456 10.6001 10.6254 9.77784 11.1749C8.95559 11.7243 7.98889 12.0175 6.99999 12.0175C5.6739 12.0175 4.40213 11.4907 3.46445 10.553C2.52677 9.61536 1.99999 8.34359 1.99999 7.01751Z" fill="white"/>
</svg>
