<svg width="17" height="17" viewBox="0 0 17 17" fill="none" xmlns="http://www.w3.org/2000/svg">
<path d="M12.0074 3.12457L13.8754 4.99254M13.2083 1.47897L8.15505 6.53226C7.89395 6.79299 7.71588 7.12519 7.64328 7.48697L7.17651 9.82347L9.51301 9.35582C9.87478 9.28346 10.2065 9.10611 10.4677 8.84493L15.521 3.79164C15.6729 3.63979 15.7933 3.45951 15.8755 3.26111C15.9577 3.0627 16 2.85006 16 2.63531C16 2.42055 15.9577 2.20791 15.8755 2.0095C15.7933 1.8111 15.6729 1.63082 15.521 1.47897C15.3692 1.32712 15.1889 1.20666 14.9905 1.12448C14.7921 1.0423 14.5794 1 14.3647 1C14.1499 1 13.9373 1.0423 13.7389 1.12448C13.5405 1.20666 13.3602 1.32712 13.2083 1.47897Z" stroke="#ECECEC" stroke-width="1.5" stroke-linecap="round" stroke-linejoin="round"/>
<path d="M14.2354 11.5882V14.2353C14.2354 14.7033 14.0495 15.1522 13.7186 15.4831C13.3876 15.8141 12.9387 16 12.4707 16H2.76472C2.29669 16 1.84783 15.8141 1.51688 15.4831C1.18593 15.1522 1 14.7033 1 14.2353V4.52928C1 4.06125 1.18593 3.61238 1.51688 3.28143C1.84783 2.95048 2.29669 2.76456 2.76472 2.76456H5.41181" stroke="#ECECEC" stroke-width="1.5" stroke-linecap="round" stroke-linejoin="round"/>
</svg>
