<svg width="19" height="21" viewBox="0 0 19 21" fill="none" xmlns="http://www.w3.org/2000/svg">
<path d="M5.02399 1.30994C5.77495 1.56433 6.48936 1.91599 7.14899 2.35594C8.08057 2.11785 9.03846 1.99824 9.99998 1.99994C10.993 1.99994 11.951 2.12394 12.849 2.35494C13.5084 1.91542 14.2224 1.5641 14.973 1.30994C15.67 1.07294 16.663 0.68894 17.253 1.34194C17.653 1.78594 17.753 2.52994 17.824 3.09794C17.904 3.73194 17.923 4.55794 17.713 5.37794C18.516 6.41494 19 7.65194 19 8.99994C19 11.0419 17.894 12.8149 16.257 14.0429C15.4692 14.6265 14.5954 15.0839 13.667 15.3989C13.881 15.8889 14 16.4309 14 16.9999V19.9999C14 20.2652 13.8946 20.5195 13.7071 20.707C13.5196 20.8946 13.2652 20.9999 13 20.9999H6.99999C6.73477 20.9999 6.48041 20.8946 6.29288 20.707C6.10534 20.5195 5.99999 20.2652 5.99999 19.9999V19.0089C5.04499 19.1259 4.24399 19.0219 3.56299 18.7329C2.85099 18.4309 2.35499 17.9629 1.98199 17.5149C1.62799 17.0909 1.24199 16.1349 0.683985 15.9489C0.559361 15.9074 0.44413 15.8418 0.344873 15.7558C0.245615 15.6697 0.164275 15.565 0.105495 15.4475C-0.0132154 15.2103 -0.0328232 14.9356 0.0509852 14.6839C0.134794 14.4322 0.315153 14.2242 0.552386 14.1054C0.78962 13.9867 1.06429 13.9671 1.31599 14.0509C1.98199 14.2729 2.41599 14.7529 2.71299 15.1389C3.19299 15.7589 3.58299 16.5689 4.34299 16.8919C4.65599 17.0249 5.11499 17.1119 5.83299 17.0139L5.99999 16.9799C6.00189 16.4357 6.11522 15.8977 6.33299 15.3989C5.40457 15.084 4.5308 14.6265 3.74299 14.0429C2.10599 12.8149 0.999985 11.0429 0.999985 8.99994C0.999985 7.65394 1.48299 6.41794 2.28399 5.38194C2.07399 4.56194 2.09199 3.73394 2.17199 3.09894L2.17699 3.06094C2.24999 2.47894 2.33499 1.79394 2.74299 1.34194C3.33299 0.68894 4.32698 1.07394 5.02298 1.31094L5.02399 1.30994Z" fill="white"/>
</svg>
