<svg width="19" height="20" viewBox="0 0 19 20" fill="none" xmlns="http://www.w3.org/2000/svg">
<path d="M0.5 10.1836C0.5 8.1235 0.5 7.0939 0.968 6.2407C1.4342 5.3866 2.2883 4.8574 3.9956 3.7972L5.7956 2.6803C7.6001 1.5598 8.5028 1 9.5 1C10.4972 1 11.399 1.5598 13.2044 2.6803L15.0044 3.7972C16.7117 4.8574 17.5658 5.3866 18.0329 6.2407C18.5 7.0939 18.5 8.1235 18.5 10.1827V11.5525C18.5 15.0625 18.5 16.8184 17.4452 17.9092C16.3913 19 14.6939 19 11.3 19H7.7C4.3061 19 2.6087 19 1.5548 17.9092C0.5 16.8184 0.5 15.0634 0.5 11.5525V10.1836Z" fill="#7F1F9A" stroke="#7F1F9A"/>
<path d="M9.5 12.7V15.4" stroke="white" stroke-width="1.35" stroke-linecap="round"/>
</svg>
