<svg width="36" height="38" viewBox="0 0 36 38" fill="none" xmlns="http://www.w3.org/2000/svg">
<path d="M0 17.4357C0 15.3692 4.57167e-07 14.337 0.642088 13.6949C1.28417 13.0528 2.31633 13.0528 4.38285 13.0528H30.6799C32.7464 13.0528 33.7786 13.0528 34.4207 13.6949C35.0628 14.337 35.0628 15.3692 35.0628 17.4357V30.6675C35.0628 31.5002 35.0628 31.9188 34.9992 32.2891C34.8763 33.0016 34.5791 33.6725 34.134 34.2422C33.689 34.8119 33.1099 35.2627 32.4484 35.5544C32.1065 35.7078 31.7011 35.8086 30.8925 36.0102C28.1795 36.6895 26.823 37.027 25.4665 37.2768C20.2203 38.2411 14.8425 38.2411 9.59405 37.2768C8.23975 37.027 6.88326 36.6873 4.17247 36.0102C3.36164 35.8086 2.95623 35.7056 2.61656 35.5566C1.95411 35.2648 1.37424 34.8135 0.928742 34.2429C0.483248 33.6724 0.186001 33.0004 0.0635509 32.287C-4.24512e-07 31.921 0 31.5046 0 30.6653V17.4357Z" fill="#7F1F9A"/>
<path d="M27.3927 13.0528V10.8614C27.3927 8.246 26.3538 5.73771 24.5044 3.88834C22.655 2.03897 20.1467 1 17.5313 1C14.9159 1 12.4076 2.03897 10.5583 3.88834C8.70889 5.73771 7.66992 8.246 7.66992 10.8614V13.0528" stroke="white"/>
<path d="M17.5313 28.3928C19.9519 28.3928 21.9141 26.4305 21.9141 24.01C21.9141 21.5894 19.9519 19.6271 17.5313 19.6271C15.1107 19.6271 13.1484 21.5894 13.1484 24.01C13.1484 26.4305 15.1107 28.3928 17.5313 28.3928Z" fill="white"/>
<path d="M17.5312 26.2014V31.6799" stroke="white" stroke-linecap="round"/>
</svg>
