<svg width="20" height="20" viewBox="0 0 20 20" fill="none" xmlns="http://www.w3.org/2000/svg">
<path d="M16.3102 11.6744C15.9269 11.5903 15.548 11.8328 15.4639 12.2161C15.3798 12.5994 15.6223 12.9783 16.0056 13.0624L16.3102 11.6744ZM16.4269 16.3017C16.0511 16.4147 15.8381 16.811 15.9512 17.1868C16.0642 17.5626 16.4605 17.7756 16.8363 17.6625L16.4269 16.3017ZM10.7105 4.78947C10.7105 6.48993 9.33204 7.86842 7.63158 7.86842V9.28947C10.1169 9.28947 12.1316 7.27476 12.1316 4.78947H10.7105ZM7.63158 7.86842C5.93112 7.86842 4.55263 6.48993 4.55263 4.78947H3.13158C3.13158 7.27476 5.1463 9.28947 7.63158 9.28947V7.86842ZM4.55263 4.78947C4.55263 3.08902 5.93112 1.71053 7.63158 1.71053V0.289474C5.1463 0.289474 3.13158 2.30419 3.13158 4.78947H4.55263ZM7.63158 1.71053C9.33204 1.71053 10.7105 3.08902 10.7105 4.78947H12.1316C12.1316 2.30419 10.1169 0.289474 7.63158 0.289474V1.71053ZM11.5394 3.61071C11.7926 3.22923 12.1619 2.93941 12.5926 2.78417L12.1108 1.4473C11.3929 1.70604 10.7774 2.18907 10.3554 2.82487L11.5394 3.61071ZM12.5926 2.78417C13.0233 2.62892 13.4926 2.61649 13.931 2.74873L14.3414 1.38823C13.6108 1.16784 12.8287 1.18855 12.1108 1.4473L12.5926 2.78417ZM13.931 2.74873C14.3693 2.88096 14.7534 3.15083 15.0265 3.51837L16.1672 2.67097C15.7122 2.05839 15.072 1.60862 14.3414 1.38823L13.931 2.74873ZM15.0265 3.51837C15.2995 3.88592 15.4469 4.33161 15.4469 4.78947H16.868C16.868 4.02637 16.6223 3.28355 16.1672 2.67097L15.0265 3.51837ZM15.4469 4.78947C15.4469 5.24733 15.2995 5.69303 15.0265 6.06058L16.1672 6.90798C16.6223 6.2954 16.868 5.55258 16.868 4.78947H15.4469ZM15.0265 6.06058C14.7534 6.42812 14.3693 6.69799 13.931 6.83022L14.3414 8.19072C15.072 7.97033 15.7122 7.52055 16.1672 6.90798L15.0265 6.06058ZM13.931 6.83022C13.4926 6.96245 13.0233 6.95003 12.5926 6.79478L12.1108 8.13165C12.8287 8.3904 13.6108 8.41111 14.3414 8.19072L13.931 6.83022ZM12.5926 6.79478C12.1619 6.63953 11.7926 6.34972 11.5394 5.96824L10.3554 6.75408C10.7774 7.38988 11.3929 7.87291 12.1108 8.13165L12.5926 6.79478ZM13.5526 15.2105C13.5526 15.8919 13.0628 16.6477 11.9683 17.2732C10.8939 17.8871 9.3621 18.2895 7.63158 18.2895V19.7105C9.56358 19.7105 11.3476 19.2646 12.6733 18.507C13.979 17.7609 14.9737 16.622 14.9737 15.2105H13.5526ZM7.63158 18.2895C5.90106 18.2895 4.36931 17.8871 3.29486 17.2732C2.20032 16.6477 1.71053 15.8919 1.71053 15.2105H0.289474C0.289474 16.622 1.28421 17.7609 2.58982 18.507C3.91554 19.2646 5.69958 19.7105 7.63158 19.7105V18.2895ZM1.71053 15.2105C1.71053 14.5291 2.20032 13.7733 3.29486 13.1479C4.36931 12.5339 5.90106 12.1316 7.63158 12.1316V10.7105C5.69958 10.7105 3.91554 11.1565 2.58982 11.9141C1.28421 12.6601 0.289474 13.7991 0.289474 15.2105H1.71053ZM7.63158 12.1316C9.3621 12.1316 10.8939 12.5339 11.9683 13.1479C13.0628 13.7733 13.5526 14.5291 13.5526 15.2105H14.9737C14.9737 13.7991 13.979 12.6601 12.6733 11.9141C11.3476 11.1565 9.56358 10.7105 7.63158 10.7105V12.1316ZM16.0056 13.0624C16.7562 13.2272 17.3561 13.51 17.7521 13.834C18.1487 14.1584 18.2895 14.4752 18.2895 14.7368H19.7105C19.7105 13.9175 19.2611 13.2325 18.652 12.7341C18.0424 12.2353 17.2213 11.8744 16.3102 11.6744L16.0056 13.0624ZM18.2895 14.7368C18.2895 14.9747 18.1751 15.2535 17.8602 15.5459C17.543 15.8405 17.0556 16.1126 16.4269 16.3017L16.8363 17.6625C17.6154 17.4282 18.3122 17.0655 18.8272 16.5873C19.3446 16.1068 19.7105 15.4748 19.7105 14.7368H18.2895Z" fill="black"/>
</svg>
