<svg width="21" height="21" viewBox="0 0 21 21" fill="none" xmlns="http://www.w3.org/2000/svg">
<path d="M17.7508 16.6549L20.7821 19.6848C20.9235 19.8311 21.0017 20.0272 21 20.2307C20.9982 20.4341 20.9166 20.6288 20.7727 20.7727C20.6288 20.9166 20.4341 20.9982 20.2307 21C20.0272 21.0017 19.8311 20.9235 19.6848 20.7821L16.6534 17.7508C14.6724 19.448 12.1111 20.3119 9.50689 20.1614C6.90266 20.0109 4.45796 18.8575 2.68577 16.9434C0.913582 15.0292 -0.048333 12.503 0.00187077 9.89494C0.0520746 7.28685 1.11049 4.79957 2.95503 2.95503C4.79957 1.11049 7.28685 0.0520746 9.89494 0.00187077C12.503 -0.048333 15.0292 0.913582 16.9434 2.68577C18.8575 4.45796 20.0109 6.90266 20.1614 9.50689C20.3119 12.1111 19.448 14.6724 17.7508 16.6534V16.6549ZM10.0892 18.6262C12.3534 18.6262 14.5248 17.7268 16.1258 16.1258C17.7268 14.5248 18.6262 12.3534 18.6262 10.0892C18.6262 7.8251 17.7268 5.6537 16.1258 4.05271C14.5248 2.45172 12.3534 1.5523 10.0892 1.5523C7.8251 1.5523 5.6537 2.45172 4.05271 4.05271C2.45172 5.6537 1.5523 7.8251 1.5523 10.0892C1.5523 12.3534 2.45172 14.5248 4.05271 16.1258C5.6537 17.7268 7.8251 18.6262 10.0892 18.6262Z" fill="black"/>
</svg>
