<svg width="23" height="25" viewBox="0 0 23 25" fill="none" xmlns="http://www.w3.org/2000/svg">
<path fill-rule="evenodd" clip-rule="evenodd" d="M10.3598 0.522326C10.6991 0.5 11.1133 0.5 11.61 0.5H11.6658C12.1626 0.5 12.5767 0.5 12.916 0.523442C13.2699 0.546884 13.6048 0.599349 13.9285 0.733302C14.301 0.887699 14.6394 1.11395 14.9244 1.39915C15.2094 1.68434 15.4354 2.02288 15.5895 2.39544C15.7525 2.78614 15.796 3.19916 15.8128 3.64791C15.8148 3.81223 15.8586 3.97335 15.94 4.11609C16.0215 4.25884 16.1379 4.37853 16.2783 4.46391C16.4223 4.54241 16.5838 4.58308 16.7478 4.5821C16.9118 4.58112 17.0729 4.53854 17.216 4.45833C17.6134 4.24735 17.9929 4.07991 18.4126 4.02409C18.8124 3.97168 19.2185 3.99852 19.6079 4.1031C19.9973 4.20768 20.3623 4.38794 20.682 4.63358C20.9524 4.85068 21.1851 5.11092 21.3707 5.40381C21.5969 5.75425 21.812 6.11163 22.016 6.47544L22.0439 6.52456C22.2573 6.88279 22.4594 7.24762 22.65 7.61851C22.8112 7.92591 22.9206 8.25782 22.9737 8.60084C23.0263 9.00053 22.9996 9.40666 22.8952 9.79604C22.7909 10.1854 22.6108 10.5504 22.3654 10.8702C22.1064 11.2062 21.7715 11.4507 21.392 11.6896C21.0861 11.8816 20.9164 12.1897 20.9164 12.5C20.9204 12.6643 20.9662 12.8249 21.0494 12.9667C21.1326 13.1085 21.2505 13.2268 21.392 13.3104C21.7715 13.5493 22.1075 13.7938 22.3654 14.1298C22.8607 14.7758 23.0791 15.5921 22.9726 16.3992C22.928 16.7463 22.8052 17.0622 22.6489 17.3815C22.4993 17.6873 22.2928 18.0457 22.0439 18.4754L22.016 18.5246C21.7681 18.9543 21.5605 19.3127 21.3707 19.5962C21.1732 19.8898 20.9611 20.1532 20.682 20.3675C20.036 20.8629 19.2197 21.0813 18.4126 20.9748C17.9929 20.9201 17.6134 20.7515 17.216 20.5417C17.0729 20.4611 16.9116 20.4182 16.7474 20.417C16.5832 20.4159 16.4214 20.4564 16.2772 20.535C16.137 20.6207 16.0209 20.7407 15.9399 20.8836C15.8589 21.0266 15.8155 21.1878 15.8139 21.3521C15.796 21.8008 15.7525 22.2139 15.5907 22.6046C15.4363 22.977 15.21 23.3154 14.9248 23.6004C14.6396 23.8854 14.3011 24.1114 13.9285 24.2656C13.6048 24.4007 13.271 24.4531 12.916 24.4777C12.5767 24.5 12.1626 24.5 11.6658 24.5H11.61C11.1133 24.5 10.6991 24.5 10.3598 24.4766C10.0059 24.4531 9.67103 24.4007 9.3473 24.2667C8.97485 24.1123 8.63646 23.886 8.35146 23.6009C8.06646 23.3157 7.84043 22.9771 7.68628 22.6046C7.5233 22.2139 7.47977 21.8008 7.46303 21.3521C7.46153 21.1877 7.41797 21.0263 7.33649 20.8835C7.25501 20.7407 7.13832 20.6211 6.99754 20.5361C6.85358 20.4575 6.692 20.4168 6.52798 20.4177C6.36396 20.4187 6.20288 20.4614 6.05986 20.5417C5.66247 20.7527 5.28293 20.9201 4.86321 20.9759C4.46345 21.0283 4.05727 21.0015 3.66789 20.8969C3.2785 20.7923 2.91353 20.6121 2.59382 20.3664C2.31475 20.1543 2.10265 19.8898 1.90507 19.5962C1.7153 19.3127 1.50768 18.9543 1.25986 18.5246L1.23196 18.4754C0.983026 18.0457 0.776514 17.6873 0.625816 17.3815C0.469537 17.0622 0.347863 16.7474 0.302096 16.3992C0.249522 15.9995 0.276189 15.5933 0.380573 15.204C0.484958 14.8146 0.665017 14.4496 0.910468 14.1298C1.16944 13.7938 1.50433 13.5493 1.88386 13.3104C2.02536 13.2268 2.14325 13.1085 2.22644 12.9667C2.30963 12.8249 2.35539 12.6643 2.3594 12.5C2.35539 12.3357 2.30963 12.1751 2.22644 12.0333C2.14325 11.8915 2.02536 11.7732 1.88386 11.6896C1.50433 11.4507 1.16833 11.2062 0.910468 10.8702C0.415152 10.2242 0.196719 9.4079 0.303212 8.60084C0.347863 8.25256 0.470654 7.93777 0.626933 7.61851C0.776514 7.31265 0.983026 6.95433 1.23196 6.52456L1.25986 6.47544C1.50768 6.04567 1.7153 5.68735 1.90507 5.40381C2.09073 5.11061 2.32343 4.85001 2.59382 4.63246C2.91361 4.38701 3.27862 4.20696 3.66801 4.10257C4.05739 3.99819 4.46352 3.97152 4.86321 4.02409C5.28293 4.07991 5.66247 4.24847 6.05986 4.45833C6.20305 4.53873 6.36432 4.58143 6.52854 4.58241C6.69275 4.58338 6.85452 4.54261 6.99865 4.46391C7.13866 4.37826 7.25462 4.25845 7.33565 4.11573C7.41668 3.973 7.46012 3.81202 7.46191 3.64791C7.47977 3.19916 7.5233 2.78614 7.68516 2.39544C7.83956 2.02299 8.06582 1.6846 8.35101 1.39959C8.6362 1.11459 8.97475 0.888565 9.3473 0.734419C9.67081 0.608433 10.0129 0.53677 10.3598 0.522326ZM8.67797 9.54003C9.46301 8.75499 10.5277 8.31396 11.638 8.31396C12.7482 8.31396 13.8129 8.75499 14.5979 9.54003C15.383 10.3251 15.824 11.3898 15.824 12.5C15.824 13.6102 15.383 14.675 14.5979 15.46C13.8129 16.245 12.7482 16.6861 11.638 16.6861C10.5277 16.6861 9.46301 16.245 8.67797 15.46C7.89293 14.675 7.4519 13.6102 7.4519 12.5C7.4519 11.3898 7.89293 10.3251 8.67797 9.54003ZM9.86196 10.724C9.39094 11.195 9.12632 11.8339 9.12632 12.5C9.12632 13.1661 9.39094 13.805 9.86196 14.276C10.333 14.747 10.9718 15.0116 11.638 15.0116C12.3041 15.0116 12.9429 14.747 13.4139 14.276C13.885 13.805 14.1496 13.1661 14.1496 12.5C14.1496 11.8339 13.885 11.195 13.4139 10.724C12.9429 10.253 12.3041 9.98838 11.638 9.98838C10.9718 9.98838 10.333 10.253 9.86196 10.724Z" fill="#F4F4F4"/>
</svg>
