<svg width="23" height="25" viewBox="0 0 23 25" fill="none" xmlns="http://www.w3.org/2000/svg">
<path fill-rule="evenodd" clip-rule="evenodd" d="M11.638 8.31396C10.5277 8.31396 9.46301 8.75499 8.67797 9.54003C7.89293 10.3251 7.4519 11.3898 7.4519 12.5C7.4519 13.6102 7.89293 14.675 8.67797 15.46C9.46301 16.245 10.5277 16.6861 11.638 16.6861C12.7482 16.6861 13.8129 16.245 14.5979 15.46C15.383 14.675 15.824 13.6102 15.824 12.5C15.824 11.3898 15.383 10.3251 14.5979 9.54003C13.8129 8.75499 12.7482 8.31396 11.638 8.31396ZM9.12632 12.5C9.12632 11.8339 9.39094 11.195 9.86196 10.724C10.333 10.253 10.9718 9.98838 11.638 9.98838C12.3041 9.98838 12.9429 10.253 13.4139 10.724C13.885 11.195 14.1496 11.8339 14.1496 12.5C14.1496 13.1661 13.885 13.805 13.4139 14.276C12.9429 14.747 12.3041 15.0116 11.638 15.0116C10.9718 15.0116 10.333 14.747 9.86196 14.276C9.39094 13.805 9.12632 13.1661 9.12632 12.5Z" fill="black"/>
<path fill-rule="evenodd" clip-rule="evenodd" d="M11.6101 0.5C11.1133 0.5 10.6992 0.5 10.3598 0.522326C10.013 0.53677 9.67087 0.608433 9.34737 0.734419C8.97481 0.888565 8.63627 1.11459 8.35107 1.39959C8.06588 1.6846 7.83962 2.02299 7.68523 2.39544C7.52337 2.78614 7.47983 3.19916 7.46197 3.64791C7.46018 3.81202 7.41674 3.973 7.33571 4.11573C7.25468 4.25845 7.13872 4.37826 6.99871 4.46391C6.85458 4.54261 6.69281 4.58339 6.5286 4.58241C6.36438 4.58143 6.20311 4.53873 6.05992 4.45833C5.66253 4.24847 5.28299 4.07991 4.86327 4.02409C4.46358 3.97152 4.05745 3.99819 3.66807 4.10257C3.27868 4.20696 2.91367 4.38701 2.59388 4.63247C2.32349 4.85001 2.09079 5.11061 1.90513 5.40381C1.71537 5.68735 1.50774 6.04567 1.25992 6.47544L1.23202 6.52456C0.983087 6.95433 0.776575 7.31265 0.626994 7.61851C0.470715 7.93777 0.347924 8.25256 0.303273 8.60084C0.19678 9.4079 0.415213 10.2242 0.910529 10.8702C1.16839 11.2062 1.50439 11.4507 1.88392 11.6896C2.02542 11.7732 2.14331 11.8915 2.2265 12.0333C2.30969 12.1751 2.35545 12.3357 2.35946 12.5C2.35545 12.6643 2.30969 12.8249 2.2265 12.9667C2.14331 13.1085 2.02542 13.2268 1.88392 13.3104C1.50439 13.5493 1.16951 13.7938 0.910529 14.1298C0.665078 14.4496 0.485019 14.8146 0.380634 15.204C0.27625 15.5933 0.249583 15.9995 0.302157 16.3992C0.347924 16.7474 0.469598 17.0622 0.625878 17.3815C0.776575 17.6873 0.983087 18.0457 1.23202 18.4754L1.25992 18.5246C1.50774 18.9543 1.71537 19.3127 1.90513 19.5962C2.10271 19.8898 2.31481 20.1543 2.59388 20.3664C2.91359 20.6121 3.27856 20.7923 3.66795 20.8969C4.05734 21.0015 4.46351 21.0283 4.86327 20.9759C5.28299 20.9201 5.66253 20.7527 6.05992 20.5417C6.20294 20.4614 6.36402 20.4187 6.52804 20.4177C6.69206 20.4168 6.85364 20.4575 6.9976 20.5361C7.13838 20.6211 7.25507 20.7407 7.33655 20.8835C7.41803 21.0263 7.46159 21.1877 7.46309 21.3521C7.47983 21.8008 7.52337 22.2139 7.68634 22.6046C7.84049 22.9771 8.06652 23.3157 8.35152 23.6009C8.63652 23.886 8.97491 24.1123 9.34737 24.2667C9.67109 24.4007 10.006 24.4531 10.3598 24.4766C10.6992 24.5 11.1133 24.5 11.6101 24.5H11.6659C12.1626 24.5 12.5768 24.5 12.9161 24.4777C13.2711 24.4531 13.6049 24.4007 13.9286 24.2656C14.3011 24.1114 14.6397 23.8854 14.9249 23.6004C15.2101 23.3154 15.4363 22.977 15.5907 22.6046C15.7526 22.2139 15.7961 21.8008 15.814 21.3521C15.8156 21.1878 15.8589 21.0266 15.94 20.8836C16.021 20.7407 16.1371 20.6207 16.2772 20.535C16.4215 20.4564 16.5833 20.4159 16.7475 20.417C16.9117 20.4182 17.0729 20.4611 17.216 20.5417C17.6134 20.7515 17.9929 20.9201 18.4127 20.9748C19.2197 21.0813 20.036 20.8629 20.6821 20.3675C20.9611 20.1532 21.1732 19.8898 21.3708 19.5962C21.5606 19.3127 21.7682 18.9543 22.016 18.5246L22.0439 18.4754C22.2929 18.0457 22.4994 17.6873 22.6489 17.3815C22.8052 17.0622 22.928 16.7463 22.9727 16.3992C23.0792 15.5921 22.8607 14.7758 22.3654 14.1298C22.1076 13.7938 21.7716 13.5493 21.392 13.3104C21.2505 13.2268 21.1326 13.1085 21.0494 12.9667C20.9662 12.8249 20.9205 12.6643 20.9165 12.5C20.9165 12.1897 21.0862 11.8816 21.392 11.6896C21.7716 11.4507 22.1064 11.2062 22.3654 10.8702C22.6109 10.5504 22.7909 10.1854 22.8953 9.79604C22.9997 9.40666 23.0264 9.00053 22.9738 8.60084C22.9207 8.25782 22.8113 7.92591 22.6501 7.61851C22.4595 7.24763 22.2573 6.8828 22.0439 6.52456L22.016 6.47544C21.8121 6.11163 21.5969 5.75425 21.3708 5.40381C21.1852 5.11092 20.9525 4.85068 20.6821 4.63358C20.3624 4.38794 19.9974 4.20768 19.608 4.1031C19.2186 3.99852 18.8124 3.97168 18.4127 4.02409C17.9929 4.07991 17.6134 4.24735 17.216 4.45833C17.073 4.53854 16.9119 4.58112 16.7479 4.5821C16.5839 4.58308 16.4223 4.54241 16.2783 4.46391C16.1379 4.37853 16.0215 4.25884 15.9401 4.11609C15.8587 3.97335 15.8149 3.81223 15.8129 3.64791C15.7961 3.19916 15.7526 2.78614 15.5896 2.39544C15.4355 2.02288 15.2094 1.68434 14.9244 1.39915C14.6394 1.11395 14.301 0.887699 13.9286 0.733302C13.6049 0.599349 13.27 0.546884 12.9161 0.523442C12.5768 0.5 12.1626 0.5 11.6659 0.5H11.6101ZM9.98811 2.28047C10.0741 2.24474 10.2047 2.21237 10.4737 2.1934C10.7494 2.17442 11.1066 2.17442 11.638 2.17442C12.1693 2.17442 12.5265 2.17442 12.8023 2.1934C13.0713 2.21237 13.2019 2.24474 13.2878 2.28047C13.6305 2.42223 13.9018 2.69349 14.0436 3.03619C14.0882 3.14335 14.125 3.31191 14.1396 3.71042C14.173 4.59451 14.6296 5.44623 15.44 5.91395C16.2504 6.38279 17.216 6.35154 17.9985 5.93851C18.3513 5.75209 18.5154 5.69963 18.6315 5.68512C18.9982 5.63665 19.3692 5.73583 19.6629 5.96084C19.7366 6.01777 19.8303 6.11488 19.981 6.33814C20.1362 6.56809 20.3148 6.8773 20.5805 7.33721C20.8462 7.79712 21.0236 8.10744 21.1453 8.35526C21.2648 8.59749 21.3016 8.72698 21.3128 8.81963C21.3612 9.1864 21.2621 9.5574 21.037 9.85107C20.9656 9.94372 20.8383 10.0598 20.5012 10.2719C19.7511 10.743 19.2421 11.5646 19.2421 12.5C19.2421 13.4354 19.7511 14.257 20.5012 14.7281C20.8383 14.9402 20.9656 15.0563 21.037 15.1489C21.2625 15.4425 21.3608 15.8131 21.3128 16.1804C21.3016 16.273 21.2636 16.4036 21.1453 16.6447C21.0236 16.8937 20.8462 17.2029 20.5805 17.6628C20.3148 18.1227 20.1351 18.4319 19.981 18.6619C19.8303 18.8851 19.7366 18.9822 19.6629 19.0392C19.3692 19.2642 18.9982 19.3633 18.6315 19.3149C18.5154 19.3004 18.3524 19.2479 17.9985 19.0615C17.2171 18.6485 16.2504 18.6172 15.44 19.0849C14.6296 19.5538 14.173 20.4055 14.1396 21.2896C14.125 21.6881 14.0882 21.8567 14.0436 21.9638C13.9734 22.1333 13.8706 22.2872 13.7409 22.4169C13.6112 22.5466 13.4573 22.6494 13.2878 22.7195C13.2019 22.7553 13.0713 22.7876 12.8023 22.8066C12.5265 22.8256 12.1693 22.8256 11.638 22.8256C11.1066 22.8256 10.7494 22.8256 10.4737 22.8066C10.2047 22.7876 10.0741 22.7553 9.98811 22.7195C9.81866 22.6494 9.6647 22.5466 9.53503 22.4169C9.40536 22.2872 9.30252 22.1333 9.23239 21.9638C9.18774 21.8567 9.1509 21.6881 9.13639 21.2896C9.1029 20.4055 8.64634 19.5538 7.83592 19.086C7.02551 18.6172 6.05992 18.6485 5.27741 19.0615C4.92467 19.2479 4.76058 19.3004 4.64448 19.3149C4.27771 19.3633 3.90671 19.2642 3.61304 19.0392C3.53937 18.9822 3.4456 18.8851 3.2949 18.6619C3.08494 18.335 2.88503 18.0019 2.69546 17.6628C2.42978 17.2029 2.2523 16.8926 2.13062 16.6447C2.01118 16.4025 1.97434 16.273 1.96318 16.1804C1.91472 15.8136 2.01389 15.4426 2.2389 15.1489C2.31034 15.0563 2.4376 14.9402 2.77471 14.7281C3.52485 14.257 4.03388 13.4354 4.03388 12.5C4.03388 11.5646 3.52485 10.743 2.77471 10.2719C2.4376 10.0598 2.31034 9.94372 2.2389 9.85107C2.01389 9.5574 1.91472 9.1864 1.96318 8.81963C1.97434 8.72698 2.0123 8.59637 2.13062 8.35526C2.2523 8.10633 2.42978 7.79712 2.69546 7.33721C2.96113 6.8773 3.14085 6.56809 3.2949 6.33814C3.4456 6.11488 3.53937 6.01777 3.61304 5.96084C3.90671 5.73583 4.27771 5.63665 4.64448 5.68512C4.76058 5.69963 4.92355 5.75209 5.27741 5.93851C6.05881 6.35154 7.02551 6.38279 7.83592 5.91395C8.64634 5.44623 9.1029 4.59451 9.13639 3.71042C9.1509 3.31191 9.18774 3.14335 9.23239 3.03619C9.37416 2.69349 9.64541 2.42223 9.98811 2.28047Z" fill="black"/>
</svg>
