<svg width="26" height="24" viewBox="0 0 26 24" fill="none" xmlns="http://www.w3.org/2000/svg">
<path d="M12.6893 0.00355556C11.6453 0.0202696 10.6149 0.24321 9.65734 0.659556C8.34134 1.22656 6.91534 2.31656 6.03234 4.25356C5.33734 5.78056 5.54834 7.68756 5.65734 9.25356C5.49734 9.22256 5.36434 9.23756 5.12634 9.12856C4.91101 9.02735 4.67626 8.97413 4.43834 8.97256C4.03234 8.97256 3.68534 9.08256 3.34534 9.28456C3.00534 9.48756 2.61034 9.81556 2.50134 10.3786C2.43534 10.7306 2.53634 11.2536 2.84534 11.6286C3.15334 12.0036 3.61034 12.2686 4.22034 12.5036C4.36434 12.5586 4.47434 12.6206 4.59534 12.6596C4.85334 12.7376 5.13434 12.8166 5.31334 12.9096C5.49334 13.0036 5.52134 13.0776 5.50134 13.0346C5.48344 13.1223 5.45171 13.2067 5.40734 13.2846L5.37634 13.3166C5.34934 13.3746 3.93534 16.4486 1.06334 16.9096C0.756268 16.9608 0.47863 17.1229 0.282937 17.365C0.0872435 17.6071 -0.0129378 17.9126 0.00134051 18.2236C0.0133405 18.3996 0.0673405 18.5556 0.126341 18.6916C0.34934 19.2036 0.79034 19.5316 1.37634 19.7856C1.84934 19.9886 2.60634 20.1336 3.43934 20.2856C3.45434 20.3406 3.45434 20.3366 3.46934 20.4106C3.50934 20.5866 3.55634 20.8096 3.62634 21.0356C3.71634 21.3326 3.95834 21.6566 4.25134 21.8176C4.54434 21.9776 4.79834 21.9736 4.93934 21.9736C5.23934 21.9736 5.42734 21.9186 5.62634 21.8796C6.00649 21.7991 6.39378 21.7572 6.78234 21.7546C7.04434 21.7546 7.34534 21.7706 7.62634 21.8176C8.01634 21.8796 8.45434 22.1766 9.06434 22.5976C9.94634 23.2076 11.1263 24.0046 12.8443 24.0046H12.9073C12.9583 24.0046 13.0243 24.0086 13.0633 24.0046H13.1573C14.8763 24.0046 16.0523 23.2076 16.9393 22.5986C17.5483 22.1806 18.0173 21.8796 18.4073 21.8166C18.6761 21.7733 18.9481 21.7526 19.2203 21.7546C19.6853 21.7546 20.0173 21.8136 20.3763 21.8796C20.6263 21.9266 20.8263 21.9736 21.0643 21.9736H21.0943C21.3253 21.9736 21.6463 21.9106 21.9073 21.7236C22.1693 21.5356 22.3103 21.2316 22.3763 21.0046C22.4345 20.8082 22.4865 20.6101 22.5323 20.4106C22.5483 20.3326 22.5483 20.3406 22.5643 20.2856C23.3963 20.1336 24.1543 19.9886 24.6263 19.7856C25.2123 19.5316 25.6533 19.2036 25.8763 18.6926C25.9436 18.5439 25.9859 18.385 26.0013 18.2226C26.0363 17.5906 25.5793 17.0126 24.9703 16.9106H24.9383C23.5013 16.6796 22.4513 15.8436 21.7213 15.0036C20.9913 14.1636 20.6233 13.3356 20.6273 13.3476C20.6161 13.327 20.6058 13.306 20.5963 13.2846C20.552 13.2067 20.5202 13.1223 20.5023 13.0346C20.4823 13.0776 20.5103 13.0036 20.6903 12.9096C20.8703 12.8166 21.1503 12.7376 21.4083 12.6596C21.5383 12.6206 21.6703 12.5586 21.8153 12.5036C22.3503 12.2966 22.7293 12.0936 23.0333 11.7846C23.3383 11.4766 23.5413 11.0146 23.5333 10.6286C23.5183 9.80056 22.9083 9.34356 22.3153 9.12856C22.3113 9.12856 22.3183 9.09756 22.3153 9.09756C22.3033 9.09356 22.2953 9.10155 22.2833 9.09756C22.0438 9.00783 21.7891 8.96538 21.5333 8.97256C21.3533 8.97256 21.0883 8.97655 20.7523 9.12856C20.5803 9.20656 20.4793 9.18756 20.3463 9.22256C20.4563 7.66356 20.6663 5.77256 19.9713 4.25356C19.0883 2.31556 17.6663 1.19856 16.3463 0.628556C15.3679 0.211972 14.3148 -0.000694462 13.2513 0.00355556H12.7513C12.7433 0.00355556 12.7793 -0.00444444 12.6893 0.00355556ZM12.7513 2.00356H13.2513C13.6493 2.00356 14.5673 2.05856 15.5323 2.47256C16.4973 2.88656 17.4853 3.62856 18.1573 5.09756C18.4663 5.77756 18.4813 7.74956 18.3763 9.34756L18.3453 9.40956C18.3293 9.63256 18.3253 9.85556 18.3133 10.0656C18.3057 10.2033 18.3268 10.3411 18.3753 10.4703C18.4239 10.5994 18.4988 10.717 18.5953 10.8156C18.7123 10.9336 19.1693 11.1446 19.6573 11.2536C19.2943 11.4606 18.8843 11.7306 18.6573 12.2536C18.4073 12.8316 18.5213 13.4336 18.7513 13.9726C18.7599 14.0041 18.7703 14.0352 18.7823 14.0656C18.7863 14.0736 18.7783 14.0896 18.7823 14.0976V14.1286C18.7903 14.1406 18.8063 14.1486 18.8143 14.1596C18.8923 14.3396 19.3063 15.2656 20.2203 16.3166C20.8303 17.0156 21.7403 17.6676 22.8133 18.1916C22.4733 18.2766 22.3213 18.3586 21.7833 18.4416C21.2983 18.5156 20.9313 18.9526 20.8133 19.2216C20.7043 19.4686 20.6773 19.6796 20.6263 19.9096C20.2363 19.8396 19.7983 19.7536 19.2203 19.7536C18.8453 19.7536 18.4423 19.7846 18.0633 19.8476C17.0993 20.0036 16.4193 20.5236 15.8133 20.9406C14.9233 21.5506 14.2833 22.0036 13.1573 22.0036C13.1183 22.0036 13.0793 22.0076 13.0323 22.0036C12.9908 21.9996 12.9489 21.9996 12.9073 22.0036H12.8453C11.7203 22.0036 11.0713 21.5506 10.1893 20.9406C9.57934 20.5236 8.90734 20.0036 7.93934 19.8476C7.55681 19.7853 7.1699 19.7539 6.78234 19.7536C6.17734 19.7536 5.74334 19.8166 5.40734 19.8786C5.366 19.6645 5.30335 19.4551 5.22034 19.2536C5.10634 18.9876 4.75934 18.5236 4.22034 18.4406C3.69634 18.3626 3.55634 18.2766 3.22034 18.1906C5.85334 16.9176 7.07134 14.4566 7.18834 14.1906V14.1606C7.18834 14.1556 7.21634 14.1366 7.22034 14.1286C7.23534 14.1016 7.25534 14.0816 7.28234 13.9726L7.22034 13.9406C7.44234 13.4016 7.59534 12.8236 7.34534 12.2536C7.11034 11.7136 6.68534 11.4296 6.31434 11.2226C6.77834 11.1246 7.24434 10.9836 7.40734 10.8166C7.50369 10.7179 7.57843 10.6003 7.62681 10.4711C7.67519 10.342 7.69614 10.2042 7.68834 10.0666C7.67734 9.83156 7.67334 9.59656 7.65834 9.34656C7.55634 7.74656 7.53634 5.77656 7.84534 5.09656C8.51734 3.62856 9.50934 2.88656 10.4703 2.47256C11.1927 2.16871 11.9677 2.00937 12.7513 2.00356Z" fill="white"/>
</svg>
