<svg width="21" height="20" viewBox="0 0 21 20" fill="none" xmlns="http://www.w3.org/2000/svg">
<path d="M16.977 11.6744C16.5937 11.5903 16.2148 11.8328 16.1306 12.2161C16.0465 12.5994 16.289 12.9783 16.6723 13.0624L16.977 11.6744ZM17.0937 16.3017C16.7179 16.4147 16.5049 16.811 16.6179 17.1868C16.731 17.5626 17.1272 17.7756 17.503 17.6625L17.0937 16.3017ZM11.3773 4.78947C11.3773 6.48993 9.99878 7.86842 8.29833 7.86842V9.28947C10.7836 9.28947 12.7983 7.27476 12.7983 4.78947H11.3773ZM8.29833 7.86842C6.59787 7.86842 5.21938 6.48993 5.21938 4.78947H3.79833C3.79833 7.27476 5.81305 9.28947 8.29833 9.28947V7.86842ZM5.21938 4.78947C5.21938 3.08902 6.59787 1.71053 8.29833 1.71053V0.289474C5.81305 0.289474 3.79833 2.30419 3.79833 4.78947H5.21938ZM8.29833 1.71053C9.99878 1.71053 11.3773 3.08902 11.3773 4.78947H12.7983C12.7983 2.30419 10.7836 0.289474 8.29833 0.289474V1.71053ZM12.2061 3.61071C12.4593 3.22923 12.8286 2.93941 13.2594 2.78417L12.7775 1.4473C12.0596 1.70604 11.4441 2.18907 11.0221 2.82487L12.2061 3.61071ZM13.2594 2.78417C13.6901 2.62892 14.1594 2.61649 14.5977 2.74873L15.0081 1.38823C14.2775 1.16784 13.4954 1.18855 12.7775 1.4473L13.2594 2.78417ZM14.5977 2.74873C15.0361 2.88096 15.4202 3.15083 15.6932 3.51837L16.834 2.67097C16.3789 2.05839 15.7387 1.60862 15.0081 1.38823L14.5977 2.74873ZM15.6932 3.51837C15.9663 3.88592 16.1137 4.33161 16.1137 4.78947H17.5347C17.5347 4.02637 17.289 3.28355 16.834 2.67097L15.6932 3.51837ZM16.1137 4.78947C16.1137 5.24733 15.9663 5.69303 15.6932 6.06058L16.834 6.90798C17.289 6.2954 17.5347 5.55258 17.5347 4.78947H16.1137ZM15.6932 6.06058C15.4202 6.42812 15.0361 6.69799 14.5977 6.83022L15.0081 8.19072C15.7387 7.97033 16.3789 7.52055 16.834 6.90798L15.6932 6.06058ZM14.5977 6.83022C14.1594 6.96245 13.6901 6.95003 13.2594 6.79478L12.7775 8.13165C13.4954 8.3904 14.2775 8.41111 15.0081 8.19072L14.5977 6.83022ZM13.2594 6.79478C12.8286 6.63953 12.4593 6.34972 12.2061 5.96824L11.0221 6.75408C11.4441 7.38988 12.0596 7.87291 12.7775 8.13165L13.2594 6.79478ZM14.2194 15.2105C14.2194 15.8919 13.7296 16.6477 12.635 17.2732C11.5606 17.8871 10.0288 18.2895 8.29833 18.2895V19.7105C10.2303 19.7105 12.0144 19.2646 13.3401 18.507C14.6457 17.7609 15.6404 16.622 15.6404 15.2105H14.2194ZM8.29833 18.2895C6.56781 18.2895 5.03605 17.8871 3.96161 17.2732C2.86707 16.6477 2.37727 15.8919 2.37727 15.2105H0.956222C0.956222 16.622 1.95096 17.7609 3.25657 18.507C4.58229 19.2646 6.36633 19.7105 8.29833 19.7105V18.2895ZM2.37727 15.2105C2.37727 14.5291 2.86707 13.7733 3.96161 13.1479C5.03605 12.5339 6.56781 12.1316 8.29833 12.1316V10.7105C6.36633 10.7105 4.58229 11.1565 3.25657 11.9141C1.95096 12.6601 0.956222 13.7991 0.956222 15.2105H2.37727ZM8.29833 12.1316C10.0288 12.1316 11.5606 12.5339 12.635 13.1479C13.7296 13.7733 14.2194 14.5291 14.2194 15.2105H15.6404C15.6404 13.7991 14.6457 12.6601 13.3401 11.9141C12.0144 11.1565 10.2303 10.7105 8.29833 10.7105V12.1316ZM16.6723 13.0624C17.4229 13.2272 18.0229 13.51 18.4189 13.834C18.8154 14.1584 18.9562 14.4752 18.9562 14.7368H20.3773C20.3773 13.9175 19.9278 13.2325 19.3188 12.7341C18.7091 12.2353 17.888 11.8744 16.977 11.6744L16.6723 13.0624ZM18.9562 14.7368C18.9562 14.9747 18.8419 15.2535 18.527 15.5459C18.2097 15.8405 17.7223 16.1126 17.0937 16.3017L17.503 17.6625C18.2821 17.4282 18.9789 17.0655 19.4939 16.5873C20.0113 16.1068 20.3773 15.4748 20.3773 14.7368H18.9562Z" fill="white"/>
</svg>
