<svg width="23" height="25" viewBox="0 0 23 25" fill="none" xmlns="http://www.w3.org/2000/svg">
<path fill-rule="evenodd" clip-rule="evenodd" d="M11.638 8.31396C10.5277 8.31396 9.46301 8.75499 8.67797 9.54003C7.89293 10.3251 7.4519 11.3898 7.4519 12.5C7.4519 13.6102 7.89293 14.675 8.67797 15.46C9.46301 16.245 10.5277 16.6861 11.638 16.6861C12.7482 16.6861 13.8129 16.245 14.5979 15.46C15.383 14.675 15.824 13.6102 15.824 12.5C15.824 11.3898 15.383 10.3251 14.5979 9.54003C13.8129 8.75499 12.7482 8.31396 11.638 8.31396ZM9.12632 12.5C9.12632 11.8339 9.39094 11.195 9.86196 10.724C10.333 10.253 10.9718 9.98838 11.638 9.98838C12.3041 9.98838 12.9429 10.253 13.4139 10.724C13.885 11.195 14.1496 11.8339 14.1496 12.5C14.1496 13.1661 13.885 13.805 13.4139 14.276C12.9429 14.747 12.3041 15.0116 11.638 15.0116C10.9718 15.0116 10.333 14.747 9.86196 14.276C9.39094 13.805 9.12632 13.1661 9.12632 12.5Z" fill="#F4F4F4"/>
<path fill-rule="evenodd" clip-rule="evenodd" d="M11.61 0.5C11.1133 0.5 10.6991 0.5 10.3598 0.522326C10.0129 0.53677 9.67081 0.608433 9.34731 0.734419C8.97475 0.888565 8.6362 1.11459 8.35101 1.39959C8.06582 1.6846 7.83956 2.02299 7.68517 2.39544C7.5233 2.78614 7.47977 3.19916 7.46191 3.64791C7.46012 3.81202 7.41668 3.973 7.33565 4.11573C7.25462 4.25845 7.13866 4.37826 6.99865 4.46391C6.85452 4.54261 6.69275 4.58339 6.52854 4.58241C6.36432 4.58143 6.20305 4.53873 6.05986 4.45833C5.66247 4.24847 5.28293 4.07991 4.86321 4.02409C4.46352 3.97152 4.05739 3.99819 3.66801 4.10257C3.27862 4.20696 2.91361 4.38701 2.59382 4.63247C2.32343 4.85001 2.09073 5.11061 1.90507 5.40381C1.7153 5.68735 1.50768 6.04567 1.25986 6.47544L1.23196 6.52456C0.983026 6.95433 0.776514 7.31265 0.626933 7.61851C0.470654 7.93777 0.347863 8.25256 0.303212 8.60084C0.196719 9.4079 0.415152 10.2242 0.910468 10.8702C1.16833 11.2062 1.50433 11.4507 1.88386 11.6896C2.02536 11.7732 2.14325 11.8915 2.22644 12.0333C2.30963 12.1751 2.35539 12.3357 2.3594 12.5C2.35539 12.6643 2.30963 12.8249 2.22644 12.9667C2.14325 13.1085 2.02536 13.2268 1.88386 13.3104C1.50433 13.5493 1.16944 13.7938 0.910468 14.1298C0.665017 14.4496 0.484958 14.8146 0.380573 15.204C0.276189 15.5933 0.249522 15.9995 0.302096 16.3992C0.347863 16.7474 0.469537 17.0622 0.625817 17.3815C0.776514 17.6873 0.983026 18.0457 1.23196 18.4754L1.25986 18.5246C1.50768 18.9543 1.7153 19.3127 1.90507 19.5962C2.10265 19.8898 2.31475 20.1543 2.59382 20.3664C2.91353 20.6121 3.2785 20.7923 3.66789 20.8969C4.05728 21.0015 4.46345 21.0283 4.86321 20.9759C5.28293 20.9201 5.66247 20.7527 6.05986 20.5417C6.20288 20.4614 6.36396 20.4187 6.52798 20.4177C6.692 20.4168 6.85358 20.4575 6.99754 20.5361C7.13832 20.6211 7.25501 20.7407 7.33649 20.8835C7.41797 21.0263 7.46153 21.1877 7.46303 21.3521C7.47977 21.8008 7.52331 22.2139 7.68628 22.6046C7.84043 22.9771 8.06646 23.3157 8.35146 23.6009C8.63646 23.886 8.97485 24.1123 9.34731 24.2667C9.67103 24.4007 10.0059 24.4531 10.3598 24.4766C10.6991 24.5 11.1133 24.5 11.61 24.5H11.6658C12.1626 24.5 12.5767 24.5 12.916 24.4777C13.271 24.4531 13.6048 24.4007 13.9285 24.2656C14.3011 24.1114 14.6396 23.8854 14.9248 23.6004C15.21 23.3154 15.4363 22.977 15.5907 22.6046C15.7525 22.2139 15.7961 21.8008 15.8139 21.3521C15.8155 21.1878 15.8589 21.0266 15.9399 20.8836C16.0209 20.7407 16.137 20.6207 16.2772 20.535C16.4214 20.4564 16.5832 20.4159 16.7474 20.417C16.9116 20.4182 17.0729 20.4611 17.216 20.5417C17.6134 20.7515 17.9929 20.9201 18.4126 20.9748C19.2197 21.0813 20.036 20.8629 20.682 20.3675C20.9611 20.1532 21.1732 19.8898 21.3707 19.5962C21.5605 19.3127 21.7681 18.9543 22.016 18.5246L22.0439 18.4754C22.2928 18.0457 22.4993 17.6873 22.6489 17.3815C22.8052 17.0622 22.928 16.7463 22.9726 16.3992C23.0791 15.5921 22.8607 14.7758 22.3654 14.1298C22.1075 13.7938 21.7715 13.5493 21.392 13.3104C21.2505 13.2268 21.1326 13.1085 21.0494 12.9667C20.9662 12.8249 20.9204 12.6643 20.9164 12.5C20.9164 12.1897 21.0861 11.8816 21.392 11.6896C21.7715 11.4507 22.1064 11.2062 22.3654 10.8702C22.6108 10.5504 22.7909 10.1854 22.8952 9.79604C22.9996 9.40666 23.0263 9.00053 22.9737 8.60084C22.9206 8.25782 22.8112 7.92591 22.65 7.61851C22.4594 7.24763 22.2573 6.8828 22.0439 6.52456L22.016 6.47544C21.812 6.11163 21.5969 5.75425 21.3707 5.40381C21.1851 5.11092 20.9524 4.85068 20.682 4.63358C20.3623 4.38794 19.9973 4.20768 19.6079 4.1031C19.2185 3.99852 18.8124 3.97168 18.4126 4.02409C17.9929 4.07991 17.6134 4.24735 17.216 4.45833C17.0729 4.53854 16.9118 4.58112 16.7478 4.5821C16.5838 4.58308 16.4223 4.54241 16.2783 4.46391C16.1379 4.37853 16.0215 4.25884 15.94 4.11609C15.8586 3.97335 15.8148 3.81223 15.8128 3.64791C15.7961 3.19916 15.7525 2.78614 15.5895 2.39544C15.4354 2.02288 15.2094 1.68434 14.9244 1.39915C14.6394 1.11395 14.301 0.887699 13.9285 0.733302C13.6048 0.599349 13.2699 0.546884 12.916 0.523442C12.5767 0.5 12.1626 0.5 11.6658 0.5H11.61ZM9.98805 2.28047C10.074 2.24474 10.2046 2.21237 10.4736 2.1934C10.7494 2.17442 11.1066 2.17442 11.6379 2.17442C12.1693 2.17442 12.5265 2.17442 12.8022 2.1934C13.0712 2.21237 13.2018 2.24474 13.2878 2.28047C13.6305 2.42223 13.9017 2.69349 14.0435 3.03619C14.0881 3.14335 14.125 3.31191 14.1395 3.71042C14.173 4.59451 14.6295 5.44623 15.44 5.91395C16.2504 6.38279 17.216 6.35154 17.9985 5.93851C18.3512 5.75209 18.5153 5.69963 18.6314 5.68512C18.9982 5.63665 19.3692 5.73583 19.6628 5.96084C19.7365 6.01777 19.8303 6.11488 19.981 6.33814C20.1361 6.56809 20.3147 6.8773 20.5804 7.33721C20.8461 7.79712 21.0236 8.10744 21.1453 8.35526C21.2647 8.59749 21.3015 8.72698 21.3127 8.81963C21.3612 9.1864 21.262 9.5574 21.037 9.85107C20.9655 9.94372 20.8383 10.0598 20.5012 10.2719C19.751 10.743 19.242 11.5646 19.242 12.5C19.242 13.4354 19.751 14.257 20.5012 14.7281C20.8383 14.9402 20.9655 15.0563 21.037 15.1489C21.2625 15.4425 21.3607 15.8131 21.3127 16.1804C21.3015 16.273 21.2636 16.4036 21.1453 16.6447C21.0236 16.8937 20.8461 17.2029 20.5804 17.6628C20.3147 18.1227 20.135 18.4319 19.981 18.6619C19.8303 18.8851 19.7365 18.9822 19.6628 19.0392C19.3692 19.2642 18.9982 19.3633 18.6314 19.3149C18.5153 19.3004 18.3523 19.2479 17.9985 19.0615C17.2171 18.6485 16.2504 18.6172 15.44 19.0849C14.6295 19.5538 14.173 20.4055 14.1395 21.2896C14.125 21.6881 14.0881 21.8567 14.0435 21.9638C13.9734 22.1333 13.8705 22.2872 13.7409 22.4169C13.6112 22.5466 13.4572 22.6494 13.2878 22.7195C13.2018 22.7553 13.0712 22.7876 12.8022 22.8066C12.5265 22.8256 12.1693 22.8256 11.6379 22.8256C11.1066 22.8256 10.7494 22.8256 10.4736 22.8066C10.2046 22.7876 10.074 22.7553 9.98805 22.7195C9.8186 22.6494 9.66464 22.5466 9.53497 22.4169C9.40529 22.2872 9.30245 22.1333 9.23233 21.9638C9.18768 21.8567 9.15084 21.6881 9.13633 21.2896C9.10284 20.4055 8.64628 19.5538 7.83586 19.086C7.02544 18.6172 6.05986 18.6485 5.27735 19.0615C4.92461 19.2479 4.76051 19.3004 4.64442 19.3149C4.27765 19.3633 3.90665 19.2642 3.61298 19.0392C3.5393 18.9822 3.44554 18.8851 3.29484 18.6619C3.08488 18.335 2.88497 18.0019 2.6954 17.6628C2.42972 17.2029 2.25224 16.8926 2.13056 16.6447C2.01112 16.4025 1.97428 16.273 1.96312 16.1804C1.91465 15.8136 2.01383 15.4426 2.23884 15.1489C2.31028 15.0563 2.43754 14.9402 2.77465 14.7281C3.52479 14.257 4.03382 13.4354 4.03382 12.5C4.03382 11.5646 3.52479 10.743 2.77465 10.2719C2.43754 10.0598 2.31028 9.94372 2.23884 9.85107C2.01383 9.5574 1.91465 9.1864 1.96312 8.81963C1.97428 8.72698 2.01224 8.59637 2.13056 8.35526C2.25224 8.10633 2.42972 7.79712 2.6954 7.33721C2.96107 6.8773 3.14079 6.56809 3.29484 6.33814C3.44554 6.11488 3.5393 6.01777 3.61298 5.96084C3.90665 5.73583 4.27765 5.63665 4.64442 5.68512C4.76051 5.69963 4.92349 5.75209 5.27735 5.93851C6.05875 6.35154 7.02544 6.38279 7.83586 5.91395C8.64628 5.44623 9.10284 4.59451 9.13633 3.71042C9.15084 3.31191 9.18768 3.14335 9.23233 3.03619C9.3741 2.69349 9.64535 2.42223 9.98805 2.28047Z" fill="#F4F4F4"/>
</svg>
